<?xml version="1.0" ?><svg id="Layer_1_1_" style="enable-background:new 0 0 44 46;" version="1.1" viewBox="0 0 44 46" xml:space="preserve" xmlns="http://www.w3.org/2000/svg" xmlns:xlink="http://www.w3.org/1999/xlink"><path d="M44,14c0-3.309-2.691-6-6-6c-1.985,0-3.743,0.973-4.836,2.463l-5.426-2.713C27.907,7.196,28,6.609,28,6c0-3.309-2.691-6-6-6  s-6,2.691-6,6c0,0.609,0.093,1.196,0.262,1.751l-5.426,2.713C9.743,8.973,7.985,8,6,8c-3.309,0-6,2.691-6,6  c0,2.967,2.167,5.431,5,5.91v6.181C2.167,26.569,0,29.033,0,32c0,3.309,2.691,6,6,6c1.985,0,3.743-0.973,4.836-2.463l5.426,2.712  C16.093,38.803,16,39.391,16,40c0,3.309,2.691,6,6,6s6-2.691,6-6c0-0.609-0.093-1.197-0.262-1.751l5.426-2.712  C34.257,37.027,36.015,38,38,38c3.309,0,6-2.691,6-6c0-2.967-2.167-5.431-5-5.91V19.91C41.833,19.431,44,16.967,44,14z M38,10  c2.206,0,4,1.794,4,4s-1.794,4-4,4s-4-1.794-4-4c0-0.599,0.148-1.197,0.439-1.779c0.002-0.004,0.001-0.008,0.003-0.011  C35.102,10.905,36.441,10,38,10z M22,2c2.206,0,4,1.794,4,4c0,0.635-0.162,1.228-0.427,1.762c-0.003,0.007-0.01,0.01-0.013,0.017  c-0.238,0.476-0.563,0.885-0.943,1.222c-0.065,0.056-0.13,0.112-0.198,0.164c-0.093,0.072-0.187,0.143-0.285,0.207  c-0.171,0.109-0.349,0.209-0.536,0.292c-0.056,0.025-0.116,0.041-0.173,0.063c-0.165,0.063-0.334,0.117-0.509,0.158  c-0.067,0.016-0.135,0.031-0.203,0.043C22.479,9.97,22.243,10,22,10s-0.479-0.03-0.711-0.072c-0.068-0.013-0.136-0.028-0.204-0.044  c-0.174-0.041-0.344-0.095-0.509-0.158c-0.057-0.022-0.117-0.038-0.173-0.063c-0.188-0.082-0.365-0.183-0.536-0.292  c-0.099-0.063-0.192-0.134-0.285-0.207c-0.068-0.052-0.134-0.107-0.198-0.164c-0.38-0.337-0.705-0.746-0.943-1.222  c-0.003-0.007-0.01-0.01-0.013-0.017C18.162,7.228,18,6.635,18,6C18,3.794,19.794,2,22,2z M2,14c0-2.206,1.794-4,4-4  c1.559,0,2.898,0.905,3.557,2.209c0.002,0.004,0.001,0.008,0.003,0.011C9.852,12.803,10,13.401,10,14c0,2.206-1.794,4-4,4  S2,16.206,2,14z M6,36c-2.206,0-4-1.794-4-4s1.794-4,4-4s4,1.794,4,4c0,0.599-0.148,1.197-0.439,1.779  c-0.002,0.004-0.001,0.008-0.003,0.012C8.898,35.095,7.559,36,6,36z M22,44c-2.206,0-4-1.794-4-4c0-0.637,0.163-1.231,0.429-1.766  c0.003-0.005,0.008-0.008,0.01-0.013c0.24-0.477,0.565-0.887,0.947-1.224c0.063-0.055,0.127-0.109,0.194-0.16  c0.094-0.073,0.19-0.145,0.29-0.21c0.171-0.108,0.347-0.208,0.533-0.29c0.057-0.025,0.118-0.042,0.177-0.065  c0.164-0.063,0.332-0.116,0.505-0.157c0.068-0.016,0.136-0.031,0.205-0.044C21.521,36.03,21.757,36,22,36s0.479,0.03,0.71,0.072  c0.069,0.013,0.137,0.028,0.205,0.044c0.173,0.041,0.341,0.094,0.505,0.157c0.059,0.023,0.12,0.039,0.177,0.065  c0.187,0.082,0.363,0.182,0.533,0.29c0.1,0.064,0.196,0.136,0.29,0.21c0.067,0.051,0.13,0.105,0.194,0.16  c0.381,0.337,0.707,0.747,0.947,1.224c0.004,0.008,0.01,0.013,0.015,0.021C25.839,38.775,26,39.366,26,40C26,42.206,24.206,44,22,44  z M26.836,36.464c-0.547-0.746-1.258-1.361-2.084-1.79c-0.038-0.02-0.078-0.037-0.116-0.056c-0.153-0.075-0.308-0.144-0.468-0.206  c-0.063-0.025-0.127-0.048-0.192-0.07c-0.141-0.049-0.285-0.093-0.431-0.132c-0.072-0.019-0.144-0.039-0.217-0.056  c-0.15-0.034-0.303-0.06-0.458-0.083c-0.067-0.01-0.132-0.023-0.2-0.031C22.451,34.015,22.227,34,22,34s-0.451,0.015-0.671,0.04  c-0.067,0.008-0.133,0.021-0.2,0.031c-0.154,0.023-0.307,0.049-0.458,0.083c-0.073,0.017-0.145,0.037-0.217,0.056  c-0.146,0.039-0.289,0.083-0.431,0.132c-0.064,0.023-0.128,0.046-0.192,0.07c-0.16,0.062-0.315,0.131-0.468,0.206  c-0.039,0.019-0.078,0.036-0.116,0.056c-0.826,0.429-1.538,1.044-2.084,1.79l-5.426-2.712c0.082-0.269,0.14-0.547,0.184-0.83  c0.005-0.029,0.009-0.058,0.013-0.087C11.973,32.561,12,32.284,12,32c0-0.344-0.036-0.679-0.091-1.007  c-0.007-0.04-0.011-0.08-0.018-0.12c-0.059-0.309-0.145-0.608-0.25-0.899c-0.018-0.05-0.035-0.1-0.055-0.149  c-0.111-0.283-0.241-0.555-0.392-0.815c-0.026-0.045-0.053-0.088-0.08-0.132c-0.16-0.261-0.335-0.51-0.532-0.743  c-0.023-0.027-0.048-0.051-0.071-0.078c-0.207-0.236-0.429-0.459-0.67-0.661c-0.007-0.005-0.012-0.012-0.019-0.017  c-0.242-0.201-0.504-0.377-0.775-0.539c-0.038-0.022-0.074-0.047-0.112-0.068c-0.263-0.148-0.54-0.274-0.825-0.382  c-0.052-0.02-0.103-0.039-0.156-0.057c-0.287-0.099-0.582-0.178-0.887-0.232C7.044,26.096,7.023,26.087,7,26.083v-6.167  c0.022-0.004,0.041-0.013,0.063-0.016c0.307-0.055,0.606-0.134,0.895-0.235c0.05-0.017,0.098-0.036,0.147-0.054  c0.288-0.109,0.567-0.236,0.833-0.385c0.036-0.02,0.069-0.043,0.104-0.063C9.316,19,9.58,18.822,9.824,18.619  c0.004-0.004,0.008-0.008,0.013-0.011c0.244-0.203,0.468-0.429,0.677-0.668c0.022-0.025,0.046-0.049,0.068-0.075  c0.197-0.233,0.373-0.484,0.533-0.745c0.026-0.043,0.053-0.086,0.079-0.13c0.151-0.261,0.282-0.533,0.392-0.817  c0.019-0.049,0.037-0.099,0.055-0.149c0.105-0.291,0.191-0.59,0.25-0.899c0.008-0.039,0.011-0.08,0.018-0.12  C11.964,14.679,12,14.344,12,14c0-0.284-0.027-0.561-0.065-0.835c-0.004-0.029-0.008-0.057-0.013-0.086  c-0.044-0.283-0.102-0.562-0.184-0.831l5.426-2.712c0.546,0.745,1.257,1.36,2.082,1.788c0.04,0.021,0.082,0.039,0.122,0.059  c0.151,0.074,0.304,0.143,0.462,0.204c0.065,0.025,0.13,0.049,0.195,0.072c0.141,0.049,0.283,0.093,0.428,0.131  c0.072,0.019,0.144,0.039,0.217,0.056c0.151,0.034,0.304,0.06,0.458,0.083c0.066,0.01,0.132,0.023,0.199,0.03  C21.549,11.985,21.773,12,22,12s0.451-0.015,0.672-0.04c0.067-0.008,0.132-0.021,0.199-0.03c0.155-0.023,0.308-0.049,0.458-0.083  c0.073-0.017,0.145-0.037,0.217-0.056c0.145-0.039,0.288-0.082,0.428-0.131c0.066-0.023,0.131-0.046,0.195-0.072  c0.158-0.061,0.311-0.13,0.462-0.204c0.041-0.02,0.082-0.038,0.122-0.059c0.825-0.429,1.536-1.044,2.082-1.788l5.426,2.712  c-0.082,0.269-0.14,0.547-0.184,0.831c-0.005,0.029-0.009,0.057-0.013,0.086C32.027,13.439,32,13.716,32,14  c0,0.344,0.036,0.679,0.091,1.007c0.007,0.04,0.011,0.08,0.018,0.119c0.059,0.31,0.145,0.609,0.25,0.9  c0.018,0.049,0.035,0.099,0.054,0.147c0.111,0.284,0.242,0.556,0.392,0.817c0.025,0.044,0.052,0.086,0.079,0.13  c0.16,0.262,0.336,0.512,0.533,0.745c0.022,0.026,0.046,0.049,0.068,0.075c0.209,0.239,0.433,0.464,0.677,0.668  c0.004,0.004,0.008,0.008,0.013,0.011c0.244,0.203,0.508,0.381,0.782,0.543c0.035,0.021,0.068,0.043,0.104,0.063  c0.266,0.15,0.544,0.277,0.833,0.386c0.049,0.018,0.098,0.037,0.147,0.054c0.289,0.1,0.588,0.179,0.895,0.235  c0.021,0.004,0.041,0.013,0.063,0.016v6.167c-0.023,0.004-0.044,0.013-0.067,0.018c-0.304,0.055-0.6,0.133-0.887,0.232  c-0.053,0.018-0.104,0.038-0.156,0.057c-0.286,0.108-0.562,0.234-0.826,0.382c-0.038,0.021-0.074,0.045-0.111,0.068  c-0.272,0.161-0.534,0.338-0.776,0.539c-0.007,0.005-0.012,0.012-0.019,0.017c-0.241,0.202-0.463,0.424-0.67,0.661  c-0.023,0.027-0.048,0.051-0.071,0.078c-0.196,0.233-0.372,0.482-0.532,0.743c-0.027,0.044-0.054,0.087-0.08,0.132  c-0.151,0.26-0.281,0.533-0.392,0.816c-0.019,0.049-0.036,0.099-0.054,0.148c-0.105,0.291-0.191,0.59-0.25,0.9  c-0.008,0.039-0.011,0.08-0.018,0.12C32.036,31.321,32,31.656,32,32c0,0.284,0.027,0.561,0.065,0.834  c0.004,0.029,0.009,0.058,0.013,0.087c0.044,0.283,0.102,0.561,0.184,0.83L26.836,36.464z M42,32c0,2.206-1.794,4-4,4  c-1.559,0-2.898-0.905-3.557-2.209c-0.002-0.004-0.001-0.008-0.003-0.012C34.148,33.197,34,32.599,34,32c0-2.206,1.794-4,4-4  S42,29.794,42,32z"/><path d="M31.778,22.373C31.602,22.153,27.387,17,22,17s-9.602,5.153-9.778,5.373c-0.296,0.366-0.296,0.889,0,1.255  C12.398,23.847,16.613,29,22,29s9.602-5.153,9.778-5.373C32.074,23.261,32.074,22.739,31.778,22.373z M22,27  c-3.417,0-6.438-2.734-7.654-4c1.216-1.266,4.237-4,7.654-4s6.438,2.734,7.654,4C28.438,24.266,25.417,27,22,27z"/><circle cx="22" cy="23" r="2"/></svg>